<svg width="72" height="15" viewBox="0 0 72 15" fill="none" xmlns="http://www.w3.org/2000/svg">
<g clip-path="url(#clip0_20_411)">
<path fill-rule="evenodd" clip-rule="evenodd" d="M47.4526 7.83584C47.4952 8.11584 47.5166 8.33122 47.5805 8.54661C48.0497 10.5497 49.6066 11.8851 51.6327 12.0574C53.4242 12.2081 54.8317 11.5189 55.8768 10.0328C56.3886 9.32199 57.2204 9.19276 57.8815 9.7743C58.2654 10.0974 58.308 10.5281 58.0095 10.9374C57.8389 11.1528 57.6896 11.3681 57.5189 11.6051C56.8365 12.5528 55.9407 13.1989 54.8317 13.5866C53.0403 14.2112 51.2488 14.2974 49.4787 13.6297C47.09 12.7466 45.6824 10.9805 45.2772 8.46046C45.0426 6.90969 45.1919 5.35892 45.8957 3.95892C46.9194 1.95584 48.5189 0.728149 50.7369 0.361995C52.2085 0.125072 53.6588 0.275841 55.0237 0.943533C56.9644 1.86969 58.1374 3.44199 58.5853 5.53123C58.7133 6.11276 58.7559 6.6943 58.7986 7.27584C58.8412 7.64199 58.6706 7.79276 58.308 7.8143C58.1374 7.8143 57.9881 7.8143 57.8175 7.8143C54.5118 7.8143 51.2061 7.8143 47.9218 7.8143C47.7725 7.83584 47.6659 7.83584 47.4526 7.83584ZM56.4739 5.63892C56.1967 3.76507 53.9573 2.12815 51.8886 2.25738C49.7346 2.38661 47.6019 4.04507 47.5166 5.63892C50.481 5.63892 53.4881 5.63892 56.4739 5.63892Z" fill="#373737"/>
<path fill-rule="evenodd" clip-rule="evenodd" d="M30.519 7.77133C30.5403 7.96517 30.5616 8.0944 30.5829 8.24517C30.9881 10.4636 32.7796 11.9929 34.9976 12.0359C36.6825 12.0575 37.9834 11.3683 38.9644 9.98979C39.4763 9.25748 40.3934 9.17133 41.0332 9.81748C41.3317 10.1406 41.3957 10.5282 41.0971 10.9159C40.9692 11.1098 40.8412 11.2821 40.6919 11.4329C39.9668 12.5098 38.9644 13.199 37.7488 13.6083C35.9573 14.2113 34.1659 14.2544 32.4384 13.5652C29.9645 12.5959 28.5782 10.679 28.2796 8.00825C28.1303 6.71594 28.2583 5.46671 28.7915 4.28209C29.8365 2.04209 31.5213 0.663632 33.9739 0.340555C35.2749 0.168247 36.5758 0.27594 37.7701 0.771324C39.9455 1.67594 41.2038 3.37748 41.6943 5.6821C41.7796 6.19902 41.8436 6.75902 41.8649 7.27594C41.8862 7.70671 41.8009 7.79286 41.3531 7.79286C40.5853 7.79286 39.7749 7.79286 38.9858 7.79286C36.3412 7.79286 33.6967 7.79286 31.0948 7.79286C30.9028 7.77133 30.7322 7.77133 30.519 7.77133ZM39.5829 5.5744C39.3057 3.72209 37.1303 2.14979 34.9976 2.19286C32.9289 2.23594 30.7749 3.91594 30.6043 5.5744C33.59 5.5744 36.5545 5.5744 39.5829 5.5744Z" fill="#373737"/>
<path fill-rule="evenodd" clip-rule="evenodd" d="M67.6279 8.76204C67.7985 8.91281 67.8838 8.99896 67.9905 9.08511C69.1421 10.0759 70.2938 11.0667 71.4241 12.0574C71.4881 12.122 71.5947 12.2082 71.6587 12.2728C72.0853 12.7036 72.1279 13.3282 71.7227 13.759C71.3388 14.1897 70.7417 14.2543 70.2938 13.8882C69.4834 13.2205 68.7156 12.5313 67.9265 11.8636C66.7962 10.8943 65.6872 9.92511 64.5568 8.95588C64.4715 8.86973 64.3436 8.78358 64.1729 8.65434C64.1729 8.89127 64.1516 9.04204 64.1516 9.19281C64.1516 11.9282 64.1516 9.88204 64.1516 12.6174C64.1516 12.7467 64.1516 12.8759 64.1516 13.0051C64.109 13.6082 63.6611 14.039 63.0639 13.9959C62.4881 13.9743 62.1042 13.5436 62.0829 12.9405C62.0829 12.8113 62.0829 12.682 62.0829 12.5528C62.0829 7.14665 62.0829 6.52204 62.0829 1.11588C62.0829 0.943575 62.0829 0.792806 62.0829 0.620498C62.0829 0.232806 62.1255 0.168191 62.4881 0.168191C62.9786 0.146652 63.4691 0.146652 63.9597 0.146652C65.1327 0.146652 66.3483 0.189729 67.5213 0.125114C69.5047 0.0389599 71.7227 1.65434 71.936 4.00204C72.1279 6.11281 70.699 8.11588 68.5663 8.54665C68.2891 8.61127 67.9905 8.69742 67.6279 8.76204ZM64.0236 7.10358C64.1516 7.12511 64.2369 7.12511 64.3009 7.12511C65.2819 7.12511 66.2843 7.12511 67.2654 7.12511C67.5426 7.12511 67.8412 7.10358 68.1184 6.99588C69.0355 6.71588 69.7606 6.15588 69.9952 5.16511C70.4004 3.46358 69.1421 1.91281 67.4146 1.91281C66.3909 1.91281 65.3886 1.91281 64.3436 1.91281C64.2156 1.91281 64.109 1.93434 63.981 1.93434C64.0236 3.65742 64.0236 5.35896 64.0236 7.10358Z" fill="#373737"/>
<path fill-rule="evenodd" clip-rule="evenodd" d="M22.8412 7.7928C20.8791 7.7928 18.981 7.7928 17.0403 7.7928C17.0403 7.96511 17.0189 8.11588 17.0189 8.26665C17.0189 9.77434 17.0189 11.2605 17.0189 12.7682C17.0189 12.962 17.0189 13.1559 16.9763 13.3067C16.827 13.759 16.3578 14.039 15.9099 14.0174C15.4194 13.9743 15.0142 13.5866 14.9502 13.0913C14.9289 12.962 14.9502 12.8543 14.9502 12.7251C14.9502 7.36204 14.9289 6.71588 14.9289 1.37434C14.9289 1.15896 14.9502 0.943575 15.0142 0.749729C15.1848 0.297422 15.654 0.0389602 16.1445 0.103576C16.5924 0.168191 16.9763 0.555883 17.0189 1.02973C17.0403 1.1805 17.0189 1.30973 17.0189 1.4605C17.0189 4.21742 17.0403 2.25742 17.0403 5.01434C17.0403 5.18665 17.0616 5.33742 17.0616 5.48819C17.4242 5.57434 22.4573 5.57434 22.8412 5.48819C22.8412 5.35896 22.8625 5.22973 22.8625 5.07896C22.8625 3.87281 22.8625 2.64511 22.8625 1.43896C22.8625 1.30973 22.8625 1.20204 22.8625 1.07281C22.9052 0.534345 23.3104 0.125114 23.8436 0.103576C24.3768 0.0820371 24.8673 0.491268 24.9313 1.02973C24.9526 1.15896 24.9313 1.26665 24.9313 1.39588C24.9313 5.16511 24.9313 8.9128 24.9313 12.682C24.9313 12.8113 24.9313 12.919 24.9313 13.0482C24.8673 13.5866 24.3981 14.0174 23.8649 13.9959C23.3317 13.9743 22.9052 13.5436 22.8412 13.0051C22.8412 12.8759 22.8412 12.7682 22.8412 12.639C22.8412 11.1959 22.8412 9.70973 22.8412 8.26665C22.8412 8.13742 22.8412 7.98665 22.8412 7.7928Z" fill="#373737"/>
<path fill-rule="evenodd" clip-rule="evenodd" d="M5.8649 14.1035C4.47865 14.082 3.1777 13.7804 1.98339 13.0481C1.47154 12.7466 1.00234 12.3589 0.618457 11.9066C0.426514 11.6697 0.191916 11.4327 0.106608 11.1312C-0.0213538 10.7435 -0.0426808 10.3127 0.319878 9.96813C0.725092 9.58044 1.27959 9.42967 1.8341 9.79582C2.36727 10.1835 2.6232 10.6789 3.07106 11.1312C3.71087 11.7774 4.54263 12.122 5.43836 12.2297C6.27011 12.3158 7.08054 12.2943 7.89097 12.0143C8.21087 11.8851 8.55211 11.7343 8.82936 11.5189C9.3412 10.9374 9.49049 10.1189 8.87201 9.5589C8.57343 9.30044 8.18955 9.10659 7.80566 8.93428C6.86727 8.52505 5.88623 8.24505 4.90519 7.98659C4.09476 7.79275 3.32699 7.53428 2.51656 7.29736C2.21798 7.21121 1.9194 7.0389 1.64215 6.88813C0.895708 6.4789 0.469168 5.83275 0.341205 5.01428C0.106608 3.31275 0.725092 1.78352 2.19666 1.02967C4.49997 -0.111869 6.8886 -0.00417657 9.19192 1.30967C9.61846 1.54659 10.0237 1.91275 10.3862 2.23582C10.6635 2.47275 10.8767 2.81736 10.9834 3.18352C11.09 3.63582 10.8767 4.10967 10.3222 4.2389C9.85305 4.34659 9.42651 4.19582 9.08528 3.82967C9.0213 3.76505 8.95732 3.6789 8.91466 3.61428C8.38149 2.79582 7.59239 2.34352 6.654 2.17121C5.71561 1.9989 4.77722 2.02044 3.88149 2.38659C3.56158 2.51582 3.22035 2.68813 2.96443 2.92505C2.58054 3.44198 2.43125 4.13121 2.9431 4.77736C3.34831 5.16505 3.81751 5.38044 4.32936 5.48813C5.45969 5.76813 6.61135 6.06967 7.74168 6.34967C8.4668 6.54352 9.17059 6.78044 9.83173 7.16813C10.6848 7.62044 11.3033 8.28813 11.5166 9.25736C11.7725 10.442 11.5166 11.562 10.5995 12.4235C9.55447 13.3712 8.36016 13.8881 6.97391 14.0389C6.59002 14.082 6.20613 14.082 5.8649 14.1035Z" fill="#373737"/>
</g>
<defs>
<clipPath id="clip0_20_411">
<rect width="72" height="14" fill="white" transform="translate(0 0.125)"/>
</clipPath>
</defs>
</svg>
