<svg width="69" height="26" viewBox="0 0 69 26" fill="none" xmlns="http://www.w3.org/2000/svg">
<g clip-path="url(#clip0_1_5)">
<path d="M68.7612 16.115C68.7612 16.115 67.282 16.3025 65.5905 16.3025C63.5209 16.3025 63.1096 15.6326 63.1096 13.978V11.9885C63.1096 10.287 63.4678 9.6439 65.5905 9.6439C67.1161 9.6439 68.5954 9.85826 68.5954 9.85826L68.8076 6.7969C68.8076 6.7969 66.9238 6.53564 65.3052 6.53564C60.9869 6.53564 59.4215 7.96919 59.4215 11.466V14.5072C59.4215 18.3658 61.3319 19.4443 65.2787 19.4443C66.8773 19.4443 68.9934 19.183 68.9934 19.183L68.7612 16.115Z" fill="#E30613"/>
<path d="M47.1829 9.91854H50.7583V19.25H54.473V9.91854H58.0417L58.254 6.75H46.9641L47.1829 9.91854Z" fill="#E30613"/>
<path d="M39.6077 17.9973L41.5778 13.2077H41.7967L42.2146 19.25H45.8099L44.9807 6.75H41.5115L38.5198 13.8508H38.3009L35.1899 6.75H31.7671L30.9512 19.25H34.4469L34.8051 13.2077H35.024L37.2396 17.9973H39.6077Z" fill="#E30613"/>
<path d="M24.7623 23.0013C24.7623 24.3813 23.6545 25.5 22.2814 25.5H2.47424C1.10777 25.5 0 24.3813 0 23.0013V2.99866C0 1.6187 1.10777 0.5 2.47424 0.5H22.2814C23.6479 0.5 24.7623 1.6187 24.7623 2.99866V23.0013ZM12.3778 22.2645C17.0079 22.2645 19.0841 18.5399 19.0841 14.8556C19.0841 9.65729 15.5154 3.73553 12.3778 3.73553C9.25351 3.73553 5.68477 9.65729 5.68477 14.8556C5.67814 18.5466 7.74774 22.2645 12.3778 22.2645Z" fill="#E30613"/>
<path d="M19.0775 14.869C19.0775 9.67069 15.5088 3.74893 12.3778 3.74893C9.25352 3.74893 5.67815 9.67069 5.67815 14.869C5.67815 18.5533 7.74775 22.2779 12.3778 22.2779C17.0013 22.2779 19.0775 18.56 19.0775 14.869Z" fill="white"/>
</g>
<defs>
<clipPath id="clip0_1_5">
<rect width="69" height="25" fill="white" transform="translate(0 0.5)"/>
</clipPath>
</defs>
</svg>
