<svg width="83" height="22" viewBox="0 0 83 22" fill="none" xmlns="http://www.w3.org/2000/svg">
<g clip-path="url(#clip0_1_15)">
<path d="M8.94843 0.587827C8.93222 0.619766 8.85117 0.64372 8.77011 0.64372C8.66474 0.635736 7.99199 0.763492 7.61914 0.85931C6.76806 1.08288 5.7792 1.43421 5.70625 1.546C5.68193 1.58593 5.80351 1.62585 5.97373 1.62585C6.29795 1.64182 6.50058 1.66577 6.56543 1.68973C6.58974 1.69771 6.71943 1.72167 6.84912 1.73764C7.58671 1.83345 7.94336 1.92129 8.64043 2.14486C9.92109 2.56805 11.0883 3.1749 13.0903 4.4365C14.0549 5.05132 15.5868 5.9057 15.7246 5.91368C15.7489 5.91368 15.9272 5.96159 16.1299 6.0095C16.6973 6.16919 17.5321 6.12927 17.9455 5.93764C18.4237 5.70608 18.5696 5.52243 18.6183 5.10722C18.675 4.66007 18.5534 4.44448 17.8969 3.76577C16.6486 2.48821 15.522 1.72965 14.0468 1.17072C13.5118 0.971097 13.3821 0.931173 12.9769 0.851325C12.8634 0.827371 12.7499 0.795431 12.7094 0.771477C12.6688 0.747523 12.5067 0.707599 12.3365 0.683644C12.1744 0.667675 11.9475 0.627751 11.834 0.611781C11.4936 0.547903 8.98896 0.531933 8.94843 0.587827Z" fill="#2962FF"/>
<path d="M69.707 1.29049C69.5936 1.36236 69.2207 1.54601 68.8803 1.68973C67.7131 2.18479 67.3483 2.79164 67.3402 4.26084C67.3402 4.75589 67.3727 5.17909 67.4294 5.27491C67.4861 5.37072 67.5023 5.45057 67.478 5.45057C67.4456 5.45057 67.5104 5.5943 67.6077 5.76996C67.8022 6.11331 68.1913 6.40076 68.5074 6.44069C68.6128 6.44867 68.7587 6.48859 68.8397 6.52053C68.9127 6.56046 69.0424 6.56046 69.1234 6.52053C69.1964 6.48859 69.3423 6.44867 69.4395 6.44069C69.6422 6.41673 70.0718 6.2251 70.2906 6.05742C70.5257 5.88973 70.7607 5.28289 70.7607 4.85171C70.7607 4.28479 70.4608 3.68593 70.0394 3.40646C69.6017 3.11901 68.9937 3.07909 68.6047 3.31065L68.321 3.47034L68.3696 3.20684C68.4345 2.85551 68.6614 2.64791 69.2937 2.38441C69.8691 2.15285 70.4365 1.74563 70.4365 1.57795C70.4365 1.47415 70.0637 1.13878 69.9583 1.13878C69.934 1.13878 69.8205 1.21065 69.707 1.29049ZM69.4882 4.173C69.7476 4.37262 69.8367 4.77985 69.7151 5.15513C69.6098 5.45856 69.5044 5.53042 69.0424 5.58631C68.5966 5.64221 68.3291 5.35475 68.3291 4.82776C68.3291 4.50837 68.3696 4.39658 68.5398 4.22091C68.8073 3.9654 69.1964 3.94943 69.4882 4.173Z" fill="#2962FF"/>
<path d="M76.1266 2.12089C76.0293 2.22469 75.9482 2.34446 75.9482 2.39237C75.9482 2.44827 76.1428 2.56804 76.3778 2.67983C76.929 2.92735 77.4315 2.91138 77.9422 2.61595L78.315 2.40036L78.0719 2.16081C77.8611 1.94522 77.8125 1.92926 77.6423 2.01709C77.4072 2.14484 76.8479 2.15283 76.621 2.02507C76.3778 1.9053 76.3292 1.91329 76.1266 2.12089Z" fill="#2962FF"/>
<path d="M59.251 4.77984V6.41672L59.6806 6.39276L60.1021 6.36881V5.50645C60.1021 5.03535 60.1183 4.65208 60.1426 4.66006C60.1669 4.66006 60.3128 4.92356 60.4749 5.23497C60.7505 5.77793 60.7829 5.80987 61.0423 5.80987C61.3017 5.80987 61.3341 5.77793 61.6016 5.23497C61.7556 4.92356 61.9015 4.66006 61.9258 4.66006C61.9501 4.65208 61.9663 5.03535 61.9663 5.50645V6.36881L62.3959 6.39276L62.8174 6.41672V4.77984V3.13497H62.3959L61.9663 3.14295L61.5205 3.90151C61.0099 4.76387 61.1071 4.77984 60.483 3.75778L60.1021 3.14295L59.6806 3.13497H59.251V4.77984Z" fill="#2962FF"/>
<path d="M64.3898 3.29468C64.017 3.46236 63.6766 3.79772 63.5469 4.13308C63.4253 4.44449 63.4253 5.17909 63.5469 5.4905C63.7252 5.94563 64.3088 6.39278 64.8032 6.44867C64.8519 6.45665 64.9491 6.48859 65.0302 6.52053C65.1031 6.56046 65.2328 6.56046 65.3139 6.52053C65.3868 6.48859 65.5084 6.44867 65.5732 6.44069C65.6381 6.4327 65.7921 6.39278 65.9056 6.34487C67.2349 5.82586 67.2349 3.81369 65.8975 3.27072C65.5003 3.11103 64.7708 3.11901 64.3898 3.29468ZM65.6462 4.18099C65.9623 4.51635 65.9542 5.15513 65.63 5.45057C65.4436 5.62624 65.014 5.65818 64.7627 5.53042C64.2926 5.28289 64.2845 4.36464 64.7384 4.10114C64.9978 3.95742 65.4679 3.99734 65.6462 4.18099Z" fill="#2962FF"/>
<path d="M72.3899 3.25475C71.4254 3.55019 70.931 4.74791 71.4173 5.61026C71.628 5.99353 72.1468 6.40076 72.4629 6.44068C72.5764 6.44867 72.7304 6.48859 72.8195 6.52851C72.9087 6.56844 73.0303 6.56045 73.1275 6.49658C73.2086 6.44867 73.3059 6.41673 73.3383 6.44068C73.3707 6.45665 73.5814 6.39277 73.8003 6.28897L74.2056 6.09734L74.4244 6.30494C74.6433 6.51254 74.6514 6.51254 74.7729 6.36083C75.162 5.88175 75.162 5.88175 74.9432 5.65019C74.7486 5.45057 74.7162 5.30684 74.6271 4.48441C74.6027 4.3327 74.5541 4.13308 74.5055 4.03726C74.3434 3.74182 73.8489 3.38251 73.4193 3.25475C72.9249 3.11102 72.852 3.11102 72.3899 3.25475ZM73.4031 4.19696C73.5652 4.34068 73.6301 4.47642 73.6544 4.77985C73.6949 5.12319 73.6706 5.21102 73.4923 5.41064C73.2329 5.70608 72.7223 5.73802 72.4548 5.48251C72.2765 5.29886 72.1711 4.83574 72.2521 4.53232C72.3818 4.02928 72.9979 3.85361 73.4031 4.19696Z" fill="#2962FF"/>
<path d="M80.5522 3.22281C80.39 3.28669 80.2847 3.4384 80.0982 3.87756C79.8875 4.3806 79.3931 5.83383 79.312 6.1692C79.2958 6.23307 79.2715 6.34486 79.2553 6.40874C79.2391 6.50456 79.3363 6.52851 79.7902 6.52851C80.3495 6.52851 80.3576 6.52851 80.4225 6.28897C80.5197 5.96958 80.5359 5.91368 80.7467 5.15513L80.925 4.49239L81.1925 5.30684C81.3384 5.76197 81.4762 6.22509 81.5086 6.34486C81.5491 6.56045 81.5653 6.56844 82.1084 6.56844C82.4164 6.56844 82.6839 6.54448 82.7001 6.50456C82.7568 6.41672 81.7356 3.78973 81.5248 3.48631C81.2816 3.13498 81.0061 3.06311 80.5522 3.22281Z" fill="#2962FF"/>
<path d="M75.543 4.89163V6.56843H75.8915C76.2157 6.56843 76.2644 6.53649 76.5156 6.20912C76.6696 6.0095 76.8155 5.8498 76.8561 5.8498C76.8885 5.8498 76.9209 5.80988 76.9209 5.76197C76.9209 5.71406 77.0587 5.51444 77.2289 5.31482L77.5288 4.94752L77.5693 5.73801L77.6099 6.52851L78.161 6.55246L78.7041 6.57642V4.89163V3.21482H78.3312C77.9179 3.21482 77.8692 3.25474 77.1073 4.22889C76.8966 4.50037 76.6939 4.72394 76.6615 4.72394C76.621 4.73193 76.5967 4.38858 76.5967 3.97337V3.21482H76.0698H75.543V4.89163Z" fill="#2962FF"/>
<path d="M3.80957 3.646C2.9585 3.93345 2.58565 4.15703 2.02637 4.72395C1.45899 5.29087 1.3374 5.46653 0.964552 6.22509C0.697072 6.75209 0.705177 6.9517 0.980763 6.79999C1.24014 6.67224 1.75078 6.61634 2.79639 6.61634C3.72852 6.61634 4.56338 6.68821 4.71738 6.77604C4.75791 6.79999 4.91191 6.83992 5.04971 6.86387C5.61709 6.9517 7.43272 7.64638 8.22705 8.08555C8.454 8.20532 8.76201 8.38098 8.91602 8.46882C9.07002 8.54866 9.69414 8.89999 10.2939 9.24334C11.9475 10.1855 13.8522 11.0399 14.752 11.2395C14.8168 11.2555 15.06 11.3114 15.2788 11.3593C15.984 11.519 16.3163 11.5589 17.1025 11.5589C18.0185 11.5589 18.294 11.511 18.8857 11.2874C19.6558 11 20.2718 10.3452 20.4096 9.66653C20.5068 9.18745 20.442 8.06958 20.3123 7.94182C20.2799 7.91786 20.0935 7.97376 19.8746 8.06958C18.8371 8.54068 17.3133 8.46083 15.4004 7.846C14.7438 7.6384 13.447 7.05551 12.9444 6.75209C12.7742 6.64828 12.5148 6.49657 12.3771 6.41672C12.2312 6.33688 11.6962 6.02547 11.1855 5.73003C9.02949 4.4844 7.52998 3.82965 6.40332 3.646C6.28984 3.62205 6.14395 3.59011 6.0791 3.56615C6.01426 3.53421 5.59277 3.50228 5.14697 3.49429C4.48233 3.47832 4.23916 3.50228 3.80957 3.646Z" fill="#2962FF"/>
<path d="M75.008 9.1076C74.2623 9.25133 74.2866 9.24335 73.5409 9.57072C72.4548 10.0418 71.4902 11.1517 71.085 12.3814C70.858 13.0521 70.8256 13.3076 70.8256 14.154C70.8256 14.9125 70.8661 15.2878 70.9958 15.6072C71.0444 15.735 71.0606 15.8308 71.0444 15.8308C70.9634 15.8308 71.4092 16.7251 71.7172 17.1643C72.8925 18.865 75.1134 19.5916 77.545 19.0726C77.8773 19.0008 78.7365 18.5856 79.0688 18.346C79.2472 18.2103 79.4336 18.0745 79.4822 18.0506C79.5309 18.0186 79.7416 18.2262 79.9604 18.5297C80.1712 18.8251 80.4792 19.1684 80.6251 19.2962L80.9007 19.5278L81.5491 18.897C81.9058 18.5536 82.311 18.1304 82.4488 17.9627L82.692 17.6673L82.3678 17.284C82.0192 16.8688 81.6545 16.2141 81.5815 15.8627C81.5572 15.735 81.5167 15.1601 81.5086 14.5932C81.4924 14.0182 81.4437 13.4114 81.3951 13.2357C81.3465 13.0601 81.2897 12.7886 81.2654 12.6369C81.2411 12.4852 81.079 12.07 80.9007 11.7106C80.4468 10.8084 79.6768 10.0498 78.7689 9.61065C78.3961 9.427 78.0151 9.2673 77.9098 9.24335C77.8125 9.22738 77.699 9.19544 77.6585 9.1635C77.391 9.0038 75.7537 8.97186 75.008 9.1076ZM77.3181 11.6308C77.8449 11.9023 78.2745 12.3335 78.5339 12.8764C78.7203 13.2597 78.7446 13.4194 78.7446 14.154C78.7446 14.8886 78.7203 15.0483 78.5339 15.4395C78.2826 15.9586 77.8692 16.3977 77.3991 16.6373C76.5886 17.0445 75.5592 17.0046 74.7324 16.5335C73.3869 15.7749 73.1194 13.2677 74.2704 12.1578C74.6352 11.8065 75.1053 11.527 75.4538 11.4631C75.5673 11.4471 75.6727 11.4152 75.6889 11.4072C75.697 11.3913 75.9807 11.3913 76.313 11.4072C76.7507 11.4232 77.0182 11.4871 77.3181 11.6308Z" fill="#2962FF"/>
<path d="M39.3521 9.12357C39.1737 9.16349 38.8981 9.2114 38.7441 9.24334C38.2821 9.32319 37.4311 9.69049 36.9447 10.0179C36.3936 10.3852 35.7451 11.1198 35.429 11.7426C35.2426 12.1099 35.0724 12.597 35.0886 12.6928C35.0886 12.7087 35.0399 12.8525 34.9832 13.0201C34.9022 13.2357 34.8778 13.635 34.894 14.3217C34.9184 15.5753 35.1372 16.3019 35.7451 17.1802C36.6854 18.5456 38.0552 19.1924 40.041 19.2323C40.6003 19.2403 41.0947 19.2243 41.1353 19.2004C41.1839 19.1684 41.2893 19.1365 41.3703 19.1285C41.727 19.0726 42.6834 18.6973 43.0968 18.4498C43.7371 18.0745 44.3531 17.3798 44.7422 16.6053C44.9205 16.246 45.0907 15.8547 45.1069 15.735C45.1313 15.6152 45.1799 15.4316 45.2204 15.3357C45.3582 14.9684 45.3015 13.2916 45.1313 12.7247C44.7989 11.6228 44.1505 10.7046 43.2751 10.0578C42.8455 9.74638 41.8242 9.30722 41.3622 9.23535C41.192 9.2114 41.0299 9.17148 40.9975 9.15551C40.884 9.08364 39.6601 9.05969 39.3521 9.12357ZM40.8678 11.5989C41.727 11.8624 42.4159 12.589 42.6105 13.4513C42.6834 13.7787 42.6915 14.5852 42.6186 14.9205C42.4402 15.8148 41.7594 16.5734 40.9245 16.8129C40.5841 16.9087 39.7006 16.9327 39.3439 16.8449C38.501 16.6373 37.731 15.8148 37.5526 14.9125C37.2527 13.3954 37.966 12.0061 39.2629 11.5989C39.9032 11.4072 40.2274 11.3992 40.8678 11.5989Z" fill="#2962FF"/>
<path d="M51.1455 9.19543C50.3674 9.4749 49.8162 10.3133 48.9732 12.4772C48.7949 12.9403 48.4059 13.9224 48.106 14.673C47.8061 15.4156 47.4413 16.3338 47.2954 16.7091C47.1495 17.0844 46.882 17.7631 46.6956 18.2182C46.5173 18.6734 46.3633 19.0566 46.3633 19.0726C46.3633 19.0886 47.0117 19.1046 47.8142 19.1046H49.2569L49.4434 18.6414C49.5406 18.3939 49.9621 17.308 50.3755 16.23C51.875 12.3335 51.7777 12.573 51.8588 12.7966C51.8993 12.9084 52.1263 13.4992 52.3532 14.1141C52.5883 14.7289 52.8801 15.5034 53.0098 15.8308C53.1395 16.1582 53.334 16.6772 53.4475 16.9886C53.5609 17.292 53.7474 17.795 53.8608 18.1065C53.9824 18.4099 54.1121 18.7612 54.1607 18.881L54.2418 19.1046H55.8062H57.3705L57.2651 18.881C57.2084 18.7612 56.9004 18.0506 56.5924 17.308C56.2763 16.5574 55.7251 15.2319 55.3604 14.3536C54.9875 13.4753 54.5822 12.4931 54.4606 12.1738C53.9419 10.8722 53.4231 9.93801 53.0098 9.5787C52.4667 9.09961 51.7939 8.95588 51.1455 9.19543Z" fill="#2962FF"/>
<path d="M3.24219 9.14753C3.21787 9.17148 2.99902 9.20342 2.75586 9.22737C2.50459 9.25133 2.11553 9.34715 1.88047 9.43498C0.624121 9.92205 0.0810547 10.6407 0.0810547 11.7985C0.0810547 12.1259 0.113477 12.4133 0.162109 12.4373C0.202637 12.4612 0.397168 12.4452 0.583594 12.3894C1.15908 12.2376 1.23203 12.2297 1.86426 12.2217C2.48838 12.2217 3.29893 12.2935 3.42051 12.3654C3.46104 12.3894 3.56641 12.4213 3.67178 12.4452C4.09326 12.5251 4.21484 12.557 4.94434 12.8365C5.88457 13.1878 6.64649 13.5951 7.86231 14.3776C9.70225 15.5753 12.3608 16.781 13.7712 17.0764C13.8847 17.1004 13.9981 17.1323 14.0306 17.1563C14.1197 17.2042 15.1248 17.308 15.5625 17.308C17.5483 17.308 18.7317 16.6373 19.5666 15.0483C19.9232 14.3536 20.2961 13.4433 20.2394 13.3875C20.2231 13.3715 19.9638 13.4513 19.6558 13.5551C19.0479 13.7707 18.9101 13.8106 18.2373 13.8985C17.6618 13.9703 16.2758 13.9703 15.8057 13.8985C15.2221 13.8027 14.9708 13.7468 14.8979 13.7068C14.8654 13.6829 14.752 13.6509 14.6547 13.627C14.5493 13.603 14.4358 13.5791 14.3872 13.5631C12.831 13.1479 11.6151 12.589 9.24834 11.2156C7.87041 10.4171 6.89775 9.95399 5.83594 9.60266C4.98486 9.32319 4.90381 9.29924 4.37695 9.24334C4.17432 9.21939 3.8501 9.18745 3.64746 9.1635C3.44482 9.13156 3.2584 9.13156 3.24219 9.14753Z" fill="#2962FF"/>
<path d="M59.251 14.1141V19.1046H60.5479H61.8447V17.3798V15.6551L62.0312 15.703C62.2419 15.7669 63.4415 15.8627 63.9521 15.8707C64.3331 15.8707 65.3382 15.7829 65.8002 15.711L66.0596 15.6711V17.3878V19.1046H67.397H68.7344V14.1141V9.12356H67.397H66.0596V11.1996C66.0596 12.3414 66.0353 13.2757 66.0028 13.2836C65.9623 13.2836 65.865 13.2996 65.7759 13.3236C64.7546 13.5312 63.2956 13.5312 62.1284 13.3156C62.0393 13.2996 61.942 13.2836 61.9096 13.2836C61.869 13.2757 61.8447 12.3414 61.8447 11.1996V9.12356H60.5479H59.251V14.1141Z" fill="#2962FF"/>
<path d="M24.3164 14.2179V19.2084L26.975 19.1445C28.434 19.1125 29.739 19.0726 29.8687 19.0646C30.436 19.0008 30.7116 18.9528 30.8575 18.881C30.9386 18.8331 31.0358 18.8011 31.0683 18.8011C31.1007 18.8011 31.2952 18.7213 31.4897 18.6255C32.0652 18.346 32.6083 17.6513 32.8028 16.9247C32.8271 16.8289 32.8596 16.4137 32.8677 15.9985C32.892 15.3118 32.8758 15.2239 32.6731 14.8806C32.4786 14.5612 31.9112 14.0821 31.5951 13.9703C31.5303 13.9544 31.6356 13.8106 31.8707 13.603C32.2192 13.2916 32.4624 12.8764 32.5435 12.4373C32.5597 12.3494 32.5759 12.2616 32.584 12.2376C32.6245 12.0939 32.5597 11.0639 32.4948 10.8882C32.2436 10.2414 31.6194 9.71444 30.8089 9.4749C30.1848 9.29125 30.3631 9.29923 27.1776 9.25931L24.3164 9.22737V14.2179ZM29.4391 11.3274C29.9173 11.4072 30.1523 11.6947 30.1523 12.1977C30.1523 12.7087 29.9497 12.9962 29.5201 13.108C29.358 13.1559 28.6609 13.1878 27.9882 13.1878L26.748 13.1798V12.2297V11.2795H27.9477C28.6042 11.2795 29.277 11.3034 29.4391 11.3274ZM29.2607 15.0722C29.4147 15.0882 29.6255 15.0962 29.7228 15.1042C29.8281 15.1122 30.0227 15.216 30.1604 15.3357C30.3793 15.5274 30.4198 15.6232 30.4441 16.0224C30.4685 16.4696 30.4522 16.5095 30.1929 16.765C30.0227 16.9327 29.8605 17.0285 29.7876 16.9966C29.7228 16.9726 29.6498 16.9886 29.6255 17.0205C29.6012 17.0605 28.9689 17.0924 28.207 17.1004L26.8291 17.1084V16.0304V14.9605L27.9071 15.0004C28.4907 15.0243 29.1067 15.0563 29.2607 15.0722Z" fill="#2962FF"/>
<path d="M1.69404 14.7049C1.14287 14.9605 1.1915 15.3836 1.86426 16.3738C2.38301 17.1323 2.89365 17.6833 3.52588 18.1863C3.75283 18.362 3.97168 18.5376 4.02842 18.5855C4.08515 18.6255 4.17431 18.7053 4.23105 18.7452C4.42558 18.9049 5.30097 19.4 5.79541 19.6395C6.50058 19.9829 7.82178 20.4141 8.42969 20.5099C9.96972 20.7414 11.4125 20.6935 12.9282 20.3502C13.4875 20.2224 14.3224 19.919 14.9384 19.6156C16.1785 19.0008 16.2353 18.9209 15.4247 19.0008C14.2089 19.1125 13.374 19.0567 12.4014 18.7772C12.1987 18.7213 12.0204 18.6734 11.9961 18.6654C11.4125 18.5057 11.0883 18.3939 10.3993 18.0985C9.25644 17.6194 8.8998 17.4357 7.49756 16.6053C6.09531 15.7749 4.95244 15.224 3.97168 14.9046C3.20166 14.657 3.16113 14.649 2.44785 14.6091C2.11553 14.5932 1.84804 14.6251 1.69404 14.7049Z" fill="#2962FF"/>
</g>
<defs>
<clipPath id="clip0_1_15">
<rect width="83" height="21" fill="white" transform="translate(0 0.5)"/>
</clipPath>
</defs>
</svg>
