<svg width="72" height="38" viewBox="0 0 72 38" fill="none" xmlns="http://www.w3.org/2000/svg">
<path d="M5.724 23.7858C4.878 25.2557 3.78 27.1377 3.276 27.9981L2.358 29.5755H7.29C10.008 29.5755 12.24 29.5217 12.24 29.4679C12.24 29.4141 11.898 28.7868 11.466 28.0877C11.034 27.3708 9.954 25.5245 9.072 23.983C8.19 22.4236 7.416 21.1689 7.362 21.1509C7.29 21.1509 6.552 22.334 5.724 23.7858Z" fill="#EC9640"/>
<path d="M36.99 13.2641C36.162 13.5868 35.892 14.4472 36.378 15.2179C36.666 15.684 36.828 15.7736 37.422 15.7736C38.916 15.7736 39.438 14.017 38.142 13.3538C37.584 13.049 37.494 13.049 36.99 13.2641Z" fill="#6B4096"/>
<path d="M61.56 17.817C61.56 20.5236 61.506 20.434 63.036 20.434C63.774 20.434 64.008 20.3443 64.458 19.9142C65.124 19.233 65.196 18.0679 64.584 17.2972C64.242 16.867 64.116 16.8132 63.414 16.9028L62.64 16.9925V16.2038C62.64 15.4509 62.622 15.4151 62.1 15.4151H61.56V17.817ZM63.936 18.6415C63.918 19.3406 63.594 19.7528 63.108 19.6811C62.802 19.6453 62.712 19.484 62.676 18.767C62.622 18.0142 62.676 17.9066 63.036 17.7632C63.594 17.5481 63.954 17.9066 63.936 18.6415Z" fill="#6B4096"/>
<path d="M65.646 15.5226C65.43 15.7377 65.502 16.4547 65.754 16.5443C66.24 16.7056 66.618 16.4547 66.564 15.9707C66.51 15.5047 65.934 15.2358 65.646 15.5226Z" fill="#6B4096"/>
<path d="M67.158 17.6377C67.176 20.2726 67.302 20.5236 68.454 20.4519C68.832 20.434 68.886 19.717 68.49 19.717C68.274 19.717 68.22 19.3585 68.22 17.566V15.4151H67.68H67.122L67.158 17.6377Z" fill="#6B4096"/>
<path d="M44.01 17.0283C43.614 17.2255 43.218 17.4764 43.128 17.566C42.84 17.8528 42.696 17.7811 42.624 17.333C42.57 16.9924 42.462 16.9387 41.76 16.9387H40.95L40.896 21.1868L40.86 25.4528H42.03H43.2V22.5311C43.2 19.6991 43.218 19.5915 43.614 19.2151C44.55 18.3368 45.828 18.3906 46.242 19.3047C46.368 19.5557 46.44 20.8821 46.44 22.6028V25.4707L47.574 25.417L48.69 25.3632L48.744 23.033C48.852 18.1934 48.24 16.9207 45.756 16.7415C44.964 16.6877 44.568 16.7415 44.01 17.0283Z" fill="#6B4096"/>
<path d="M0 16.9566C0 17.1717 2.376 21.1509 2.484 21.1509C2.61 21.133 3.366 19.8962 4.536 17.7811L5.076 16.8491H2.538C1.134 16.8491 0 16.9028 0 16.9566Z" fill="#6B4096"/>
<path d="M22.05 17.4226C22.176 17.9962 23.238 21.7783 23.958 24.234L24.318 25.4528H25.65C26.964 25.4528 27 25.4349 27.108 24.9509C27.306 24.1264 28.188 20.7745 28.386 20.183C28.476 19.8783 28.854 21.1151 29.754 24.6104L29.97 25.4707L31.32 25.417L32.652 25.3632L33.084 23.9292C33.318 23.1406 33.75 21.6887 34.038 20.7028C34.326 19.717 34.614 18.7311 34.65 18.516C34.704 18.3009 34.83 17.9066 34.92 17.6557C35.208 16.9028 35.154 16.8491 34.11 16.8491C33.354 16.8491 33.102 16.9207 32.976 17.1538C32.886 17.333 32.49 18.7132 32.112 20.2189C31.662 21.9575 31.374 22.8358 31.284 22.6387C31.212 22.4594 30.816 21.0792 30.402 19.5736L29.664 16.8491H28.602C27.792 16.8491 27.522 16.9207 27.396 17.1538C27.306 17.333 26.928 18.7132 26.55 20.2009C26.172 21.7066 25.83 22.9255 25.794 22.8896C25.758 22.8358 25.182 20.7745 24.534 18.283C24.372 17.6377 24.156 17.0641 24.048 16.9924C23.94 16.9207 23.418 16.8491 22.896 16.8491H21.924L22.05 17.4226Z" fill="#6B4096"/>
<path d="M36.36 21.1509V25.4528H37.53H38.7L38.664 21.1868L38.61 16.9387L37.494 16.8849L36.36 16.8311V21.1509Z" fill="#6B4096"/>
<path d="M51.84 18.6415V20.434H52.38H52.902L52.956 19.1255C53.01 17.8708 53.028 17.8349 53.514 17.7811L54 17.7274V19.0717V20.434H54.54H55.062L55.116 19.1255C55.17 17.8887 55.188 17.8349 55.62 17.8349C56.052 17.8349 56.07 17.8887 56.124 19.1255C56.178 20.3802 56.196 20.434 56.61 20.434C57.042 20.434 57.06 20.3981 57.06 19.0358C57.06 17.3689 56.79 16.8491 55.944 16.8491C55.638 16.8491 55.242 16.9745 55.08 17.1179C54.81 17.3689 54.756 17.3689 54.54 17.1179C54.288 16.8132 53.586 16.7594 53.1 17.0283C52.866 17.1538 52.722 17.1538 52.65 17.0283C52.596 16.9387 52.38 16.8491 52.182 16.8491C51.858 16.8491 51.84 16.9925 51.84 18.6415Z" fill="#6B4096"/>
<path d="M58.338 17.1358C57.294 17.8707 57.276 19.6094 58.338 20.2368C60.192 21.366 62.208 18.8924 60.678 17.3689C60.066 16.7594 59.022 16.6519 58.338 17.1358ZM59.976 17.9962C60.192 18.3009 60.138 19.2689 59.904 19.5019C59.346 20.0575 58.572 19.5019 58.644 18.5877C58.716 17.6915 59.526 17.3509 59.976 17.9962Z" fill="#6B4096"/>
<path d="M65.646 16.9566C65.574 17.0283 65.52 17.8349 65.52 18.767V20.434H66.06H66.618L66.564 18.6774C66.51 17.0821 66.474 16.9387 66.15 16.8849C65.934 16.8491 65.718 16.8849 65.646 16.9566Z" fill="#6B4096"/>
<path d="M69.714 17.0283C69.246 17.2255 68.76 18.0858 68.76 18.7132C68.76 19.9141 69.534 20.5236 70.956 20.4698C72 20.4519 72.072 20.3981 71.928 19.9321C71.82 19.6274 71.694 19.5915 71.1 19.6632C70.416 19.7528 69.84 19.5198 69.84 19.1613C69.84 19.0717 70.326 19 70.92 19H72V18.4443C72 17.8708 71.73 17.2075 71.388 16.9925C71.118 16.8132 70.2 16.8311 69.714 17.0283ZM71.064 17.9604C71.118 18.2292 70.992 18.283 70.488 18.283C70.056 18.283 69.84 18.1934 69.84 18.0321C69.84 17.4943 70.974 17.4406 71.064 17.9604Z" fill="#6B4096"/>
<path d="M4.86 8.74717C4.86 8.81886 4.932 8.96226 5.022 9.05188C5.166 9.19528 7.056 12.4038 7.992 14.0708C9.324 16.4547 12.132 21.1509 12.222 21.1509C12.33 21.1509 13.014 20.0396 13.968 18.3726C14.328 17.7274 18.846 9.96603 19.26 9.26698L19.656 8.60377H12.258C8.19 8.60377 4.86 8.67547 4.86 8.74717Z" fill="#15C1C1"/>
</svg>
