<svg width="23" height="30" viewBox="0 0 23 30" fill="none" xmlns="http://www.w3.org/2000/svg">
<path d="M11.5 0.25C5.50173 0.25 0.624969 5.12676 0.624969 11.125C0.624969 19.1453 10.656 28.6836 11.0865 29.0857C11.2054 29.1934 11.3527 29.25 11.5 29.25C11.6472 29.25 11.8002 29.1934 11.9134 29.0857C12.3439 28.6836 22.375 19.1453 22.375 11.125C22.375 5.12676 17.4982 0.25 11.5 0.25ZM11.5 17.1686C8.1695 17.1686 5.45642 14.4555 5.45642 11.125C5.45642 7.79453 8.1695 5.08145 11.5 5.08145C14.8304 5.08145 17.5435 7.79453 17.5435 11.125C17.5435 14.4555 14.8304 17.1686 11.5 17.1686Z" fill="#E20613"/>
</svg>
