<svg width="36" height="35" viewBox="0 0 36 35" fill="none" xmlns="http://www.w3.org/2000/svg">
<circle cx="18.3613" cy="17.5" r="17.5" fill="#7360F2"/>
<g clip-path="url(#clip0_203_167)">
<path d="M26.3032 18.7038C25.8069 22.7594 22.8096 23.0186 22.256 23.2038C22.0269 23.2779 19.8314 23.8149 17.1014 23.6483L14.1232 26.852V23.1668H14.1041C10.1141 22.0557 10.2478 17.9261 10.286 15.7594C10.3241 13.5927 10.7441 11.8149 11.966 10.6112C14.1614 8.64828 18.6669 8.94457 18.6669 8.94457C22.4851 8.96309 24.2987 10.0927 24.7187 10.4816C26.1123 11.6668 26.8378 14.5186 26.3032 18.7038ZM25.7496 9.44457C25.2532 9.00013 23.2296 7.53717 18.7241 7.51865C18.7241 7.51865 13.4169 7.20383 10.8205 9.55568C9.38869 10.9816 8.87324 13.0742 8.83506 15.6668C8.77778 18.2594 8.72051 23.1298 13.436 24.4446V26.4631C13.436 26.4631 13.3978 27.2779 13.9514 27.4446C14.6005 27.6483 14.9823 27.0186 15.6123 26.352C15.956 25.9816 16.4332 25.4446 16.7769 25.0372C20.0032 25.3149 22.4851 24.6853 22.7714 24.5927C23.4205 24.389 27.1051 23.9075 27.716 19.0557C28.3269 14.0557 27.4105 10.8705 25.7496 9.44457Z" fill="white"/>
<path d="M22.867 19.3148C22.867 19.3148 22.2561 18.8148 21.9697 18.5926C21.6834 18.3889 21.2443 18.1111 20.9961 17.9815C20.557 17.7407 20.0988 17.8889 19.9079 18.1296L19.5261 18.6111C19.3352 18.8518 19.0106 18.8148 18.9343 18.7963C18.3615 18.6481 17.7506 18.3148 17.1206 17.7222C16.4906 17.1296 16.1088 16.5 15.9752 15.8704L15.9561 15.8333C15.9179 15.5741 15.9561 15.4444 16.0706 15.2593L16.0897 15.2407C16.357 15 16.8343 14.7222 16.9106 14.4444C17.1015 13.963 16.2615 12.963 16.147 12.7963C16.147 12.7963 15.5361 12.0185 15.3261 11.8704C15.097 11.6852 14.7343 11.5741 14.3715 11.7963H14.3524C13.3024 12.4815 12.9397 12.8704 13.0352 13.463L13.0924 13.7037C13.627 15.3148 14.6388 17.0556 16.1661 18.5926C17.6743 20.0926 19.3161 21 20.9197 21.6296C21.3397 21.7593 21.7788 21.6481 22.2179 21.2778C22.5615 20.963 22.8288 20.6296 23.0197 20.2778C23.2297 19.9074 23.1534 19.5556 22.867 19.3148Z" fill="white"/>
<path d="M20.366 15.7593C20.3088 15.7593 20.2515 15.7037 20.2515 15.6481C20.2324 15.2222 20.1179 14.9074 19.9079 14.6852C19.6979 14.463 19.3924 14.3519 18.9915 14.3333C18.9342 14.3333 18.877 14.2778 18.877 14.2037C18.877 14.1296 18.9342 14.0926 19.0106 14.0926C19.4879 14.1111 19.8506 14.2593 20.0988 14.5185C20.347 14.7778 20.4806 15.1481 20.5188 15.6296C20.4997 15.7037 20.4424 15.7593 20.366 15.7593Z" fill="white"/>
<path d="M21.5497 16.1667C21.4733 16.1667 21.4351 16.1111 21.4351 16.037C21.4542 15.2407 21.206 14.5555 20.7097 14.0185C20.4615 13.7407 20.156 13.537 19.8124 13.3889C19.4688 13.2407 19.0678 13.1481 18.6097 13.1111C18.5524 13.1111 18.4951 13.0555 18.4951 12.9815C18.4951 12.9074 18.5524 12.8704 18.6288 12.8704C19.5833 12.9444 20.3469 13.2778 20.8815 13.8518C21.416 14.4444 21.6833 15.1667 21.6642 16.037C21.6833 16.1111 21.626 16.1667 21.5497 16.1667Z" fill="white"/>
<path d="M22.7715 16.6296C22.7142 16.6296 22.6569 16.5741 22.6569 16.5185C22.6569 15.8148 22.5424 15.1667 22.3324 14.6111C22.1224 14.0556 21.7978 13.5741 21.3778 13.1667C20.9578 12.7593 20.4806 12.4444 19.9651 12.2407C19.4496 12.037 18.8578 11.9259 18.2278 11.9259C18.1706 11.9259 18.1133 11.8704 18.1133 11.8148C18.1133 11.7407 18.1706 11.7037 18.2278 11.7037C19.5451 11.7222 20.6524 12.1481 21.5496 13.0185C21.9887 13.4444 22.3324 13.963 22.5615 14.5556C22.7906 15.1481 22.9051 15.8148 22.9051 16.5556C22.9051 16.5741 22.8478 16.6296 22.7715 16.6296Z" fill="white"/>
</g>
<defs>
<clipPath id="clip0_203_167">
<rect width="19.0909" height="20" fill="white" transform="translate(8.81592 7.5)"/>
</clipPath>
</defs>
</svg>
