<svg width="36" height="35" viewBox="0 0 36 35" fill="none" xmlns="http://www.w3.org/2000/svg">
<circle cx="18.3613" cy="17.5" r="17.5" fill="#33CE62"/>
<g clip-path="url(#clip0_203_166)">
<path d="M25.2333 11.1149C23.5413 9.43134 21.2913 8.5 18.8973 8.5C13.9653 8.5 9.93333 12.494 9.93333 17.4194C9.93333 18.9955 10.3473 20.5179 11.1213 21.8791L9.86133 26.5L14.6133 25.2642C15.9273 25.9806 17.4033 26.3567 18.8973 26.3567C23.8293 26.3567 27.8613 22.3627 27.8613 17.4373C27.8613 15.0373 26.9253 12.7985 25.2333 11.1149ZM18.8973 24.8343C17.5653 24.8343 16.2513 24.4761 15.0993 23.7955L14.8293 23.6343L12.0213 24.3866L12.7773 21.6463L12.5973 21.3597C11.8593 20.1776 11.4633 18.8164 11.4633 17.4194C11.4453 13.3358 14.7933 10.0045 18.8973 10.0045C20.8953 10.0045 22.7493 10.7746 24.1713 12.1716C25.5753 13.5687 26.3493 15.4313 26.3493 17.4194C26.3493 21.503 23.0013 24.8343 18.8973 24.8343ZM22.9833 19.2821C22.7673 19.1746 21.6513 18.6373 21.4533 18.5657C21.2553 18.494 21.0933 18.4582 20.9493 18.6731C20.8053 18.8881 20.3733 19.3896 20.2473 19.5507C20.1213 19.694 19.9773 19.7119 19.7613 19.6045C19.5453 19.497 18.8073 19.2642 17.9613 18.494C17.2953 17.903 16.8453 17.1687 16.7193 16.9537C16.5933 16.7388 16.7013 16.6134 16.8093 16.506C16.9173 16.3985 17.0253 16.2373 17.1513 16.1119C17.2593 15.9866 17.2953 15.897 17.3673 15.7358C17.4393 15.5925 17.4033 15.4493 17.3493 15.3418C17.2953 15.2343 16.8453 14.1418 16.6653 13.694C16.4853 13.2642 16.3053 13.3179 16.1613 13.3179C16.0353 13.3179 15.8733 13.3179 15.7293 13.3179C15.5853 13.3179 15.3333 13.3716 15.1353 13.6045C14.9373 13.8194 14.3433 14.3746 14.3433 15.4672C14.3433 16.5597 15.1533 17.6164 15.2613 17.7776C15.3693 17.9209 16.8453 20.1776 19.0953 21.1448C19.6353 21.3776 20.0493 21.503 20.3733 21.6104C20.9133 21.7716 21.3993 21.7537 21.7773 21.7C22.2093 21.6284 23.1093 21.1627 23.2893 20.6433C23.4693 20.1239 23.4693 19.6761 23.4153 19.5866C23.3613 19.4433 23.2173 19.3896 22.9833 19.2821Z" fill="white"/>
</g>
<defs>
<clipPath id="clip0_203_166">
<rect width="18" height="18" fill="white" transform="translate(9.86133 8.5)"/>
</clipPath>
</defs>
</svg>
